<mxfile host="app.diagrams.net" agent="Mozilla/5.0 (Windows NT 10.0; Win64; x64) AppleWebKit/537.36 (KHTML, like Gecko) Chrome/129.0.0.0 Safari/537.36" version="24.7.17">
  <diagram name="Page-1" id="rqWEo5QGtgJYBOgtPySe">
    <mxGraphModel dx="1032" dy="1097" grid="1" gridSize="10" guides="1" tooltips="1" connect="1" arrows="1" fold="1" page="1" pageScale="1" pageWidth="850" pageHeight="1100" math="0" shadow="0">
      <root>
        <mxCell id="0" />
        <mxCell id="1" parent="0" />
        <mxCell id="PuD7oUluBIUoyol_-ZLI-10" style="edgeStyle=orthogonalEdgeStyle;rounded=0;orthogonalLoop=1;jettySize=auto;html=1;exitX=0.5;exitY=1;exitDx=0;exitDy=0;entryX=0.5;entryY=0;entryDx=0;entryDy=0;" edge="1" parent="1" source="PuD7oUluBIUoyol_-ZLI-1" target="PuD7oUluBIUoyol_-ZLI-4">
          <mxGeometry relative="1" as="geometry" />
        </mxCell>
        <mxCell id="PuD7oUluBIUoyol_-ZLI-11" style="edgeStyle=orthogonalEdgeStyle;rounded=0;orthogonalLoop=1;jettySize=auto;html=1;exitX=0.5;exitY=1;exitDx=0;exitDy=0;entryX=0.5;entryY=0;entryDx=0;entryDy=0;" edge="1" parent="1" source="PuD7oUluBIUoyol_-ZLI-1" target="PuD7oUluBIUoyol_-ZLI-5">
          <mxGeometry relative="1" as="geometry" />
        </mxCell>
        <mxCell id="PuD7oUluBIUoyol_-ZLI-12" style="edgeStyle=orthogonalEdgeStyle;rounded=0;orthogonalLoop=1;jettySize=auto;html=1;exitX=0.5;exitY=1;exitDx=0;exitDy=0;entryX=0.5;entryY=0;entryDx=0;entryDy=0;" edge="1" parent="1" source="PuD7oUluBIUoyol_-ZLI-1" target="PuD7oUluBIUoyol_-ZLI-6">
          <mxGeometry relative="1" as="geometry" />
        </mxCell>
        <mxCell id="PuD7oUluBIUoyol_-ZLI-13" style="edgeStyle=orthogonalEdgeStyle;rounded=0;orthogonalLoop=1;jettySize=auto;html=1;exitX=0.5;exitY=1;exitDx=0;exitDy=0;entryX=0.5;entryY=0;entryDx=0;entryDy=0;" edge="1" parent="1" source="PuD7oUluBIUoyol_-ZLI-1" target="PuD7oUluBIUoyol_-ZLI-7">
          <mxGeometry relative="1" as="geometry" />
        </mxCell>
        <mxCell id="PuD7oUluBIUoyol_-ZLI-14" style="edgeStyle=orthogonalEdgeStyle;rounded=0;orthogonalLoop=1;jettySize=auto;html=1;exitX=0.5;exitY=1;exitDx=0;exitDy=0;entryX=0.5;entryY=0;entryDx=0;entryDy=0;" edge="1" parent="1" source="PuD7oUluBIUoyol_-ZLI-1" target="PuD7oUluBIUoyol_-ZLI-3">
          <mxGeometry relative="1" as="geometry" />
        </mxCell>
        <mxCell id="PuD7oUluBIUoyol_-ZLI-15" style="edgeStyle=orthogonalEdgeStyle;rounded=0;orthogonalLoop=1;jettySize=auto;html=1;exitX=0.5;exitY=1;exitDx=0;exitDy=0;entryX=0.5;entryY=0;entryDx=0;entryDy=0;" edge="1" parent="1" source="PuD7oUluBIUoyol_-ZLI-1" target="PuD7oUluBIUoyol_-ZLI-2">
          <mxGeometry relative="1" as="geometry" />
        </mxCell>
        <mxCell id="PuD7oUluBIUoyol_-ZLI-1" value="Main()" style="rounded=0;whiteSpace=wrap;html=1;" vertex="1" parent="1">
          <mxGeometry x="350" y="30" width="120" height="60" as="geometry" />
        </mxCell>
        <mxCell id="PuD7oUluBIUoyol_-ZLI-2" value="load_board()" style="rounded=0;whiteSpace=wrap;html=1;" vertex="1" parent="1">
          <mxGeometry x="20" y="200" width="120" height="60" as="geometry" />
        </mxCell>
        <mxCell id="PuD7oUluBIUoyol_-ZLI-3" value="display_board()" style="rounded=0;whiteSpace=wrap;html=1;" vertex="1" parent="1">
          <mxGeometry x="160" y="200" width="120" height="60" as="geometry" />
        </mxCell>
        <mxCell id="PuD7oUluBIUoyol_-ZLI-4" value="prompt_for_move()" style="rounded=0;whiteSpace=wrap;html=1;" vertex="1" parent="1">
          <mxGeometry x="300" y="200" width="120" height="60" as="geometry" />
        </mxCell>
        <mxCell id="PuD7oUluBIUoyol_-ZLI-19" style="edgeStyle=orthogonalEdgeStyle;rounded=0;orthogonalLoop=1;jettySize=auto;html=1;exitX=0.5;exitY=1;exitDx=0;exitDy=0;entryX=0.5;entryY=0;entryDx=0;entryDy=0;" edge="1" parent="1" source="PuD7oUluBIUoyol_-ZLI-5" target="PuD7oUluBIUoyol_-ZLI-16">
          <mxGeometry relative="1" as="geometry" />
        </mxCell>
        <mxCell id="PuD7oUluBIUoyol_-ZLI-20" style="edgeStyle=orthogonalEdgeStyle;rounded=0;orthogonalLoop=1;jettySize=auto;html=1;exitX=0.5;exitY=1;exitDx=0;exitDy=0;entryX=0.5;entryY=0;entryDx=0;entryDy=0;" edge="1" parent="1" source="PuD7oUluBIUoyol_-ZLI-5" target="PuD7oUluBIUoyol_-ZLI-17">
          <mxGeometry relative="1" as="geometry" />
        </mxCell>
        <mxCell id="PuD7oUluBIUoyol_-ZLI-21" style="edgeStyle=orthogonalEdgeStyle;rounded=0;orthogonalLoop=1;jettySize=auto;html=1;exitX=0.5;exitY=1;exitDx=0;exitDy=0;" edge="1" parent="1" source="PuD7oUluBIUoyol_-ZLI-5" target="PuD7oUluBIUoyol_-ZLI-18">
          <mxGeometry relative="1" as="geometry" />
        </mxCell>
        <mxCell id="PuD7oUluBIUoyol_-ZLI-5" value="validate_move()" style="rounded=0;whiteSpace=wrap;html=1;" vertex="1" parent="1">
          <mxGeometry x="440" y="200" width="120" height="60" as="geometry" />
        </mxCell>
        <mxCell id="PuD7oUluBIUoyol_-ZLI-6" value="convert_coords()" style="rounded=0;whiteSpace=wrap;html=1;" vertex="1" parent="1">
          <mxGeometry x="580" y="200" width="120" height="60" as="geometry" />
        </mxCell>
        <mxCell id="PuD7oUluBIUoyol_-ZLI-7" value="save_board()" style="rounded=0;whiteSpace=wrap;html=1;" vertex="1" parent="1">
          <mxGeometry x="720" y="200" width="120" height="60" as="geometry" />
        </mxCell>
        <mxCell id="PuD7oUluBIUoyol_-ZLI-16" value="check_row()" style="rounded=0;whiteSpace=wrap;html=1;" vertex="1" parent="1">
          <mxGeometry x="300" y="370" width="120" height="60" as="geometry" />
        </mxCell>
        <mxCell id="PuD7oUluBIUoyol_-ZLI-17" value="check_column()" style="rounded=0;whiteSpace=wrap;html=1;" vertex="1" parent="1">
          <mxGeometry x="440" y="370" width="120" height="60" as="geometry" />
        </mxCell>
        <mxCell id="PuD7oUluBIUoyol_-ZLI-18" value="check_box()" style="rounded=0;whiteSpace=wrap;html=1;" vertex="1" parent="1">
          <mxGeometry x="580" y="370" width="120" height="60" as="geometry" />
        </mxCell>
      </root>
    </mxGraphModel>
  </diagram>
</mxfile>
